<?xml version="1.0" encoding="UTF-8"?>
<!DOCTYPE svg PUBLIC "-//W3C//DTD SVG 1.1//EN" "http://www.w3.org/Graphics/SVG/1.1/DTD/svg11.dtd">
<svg xmlns="http://www.w3.org/2000/svg" version="1.1" width="2765px" height="995px" style="shape-rendering:geometricPrecision; text-rendering:geometricPrecision; image-rendering:optimizeQuality; fill-rule:evenodd; clip-rule:evenodd" xmlns:xlink="http://www.w3.org/1999/xlink">
<g><path style="opacity:1" fill="#2b2926" d="M 1563.5,-0.5 C 1576.5,-0.5 1589.5,-0.5 1602.5,-0.5C 1627.2,0.722433 1651.53,4.8891 1675.5,12C 1721.04,26.8694 1750.2,57.3694 1763,103.5C 1765.91,113.651 1767.75,123.984 1768.5,134.5C 1724.86,137.352 1681.19,139.518 1637.5,141C 1628.98,98.3771 1602.98,79.7104 1559.5,85C 1547.44,85.9499 1537.27,90.7832 1529,99.5C 1518.57,115.124 1520.73,128.624 1535.5,140C 1542.85,143.784 1550.52,146.784 1558.5,149C 1591.11,155.902 1623.44,163.902 1655.5,173C 1686.67,181.09 1715.01,194.756 1740.5,214C 1776.78,247.497 1790.28,288.663 1781,337.5C 1766.88,395.961 1731.04,434.127 1673.5,452C 1631.14,463.05 1588.14,466.383 1544.5,462C 1510.24,460.352 1477.9,451.685 1447.5,436C 1415.25,413.712 1393.75,383.546 1383,345.5C 1379.53,332.707 1377.37,319.707 1376.5,306.5C 1420.82,303.626 1465.15,300.959 1509.5,298.5C 1516.08,353.794 1547.08,378.627 1602.5,373C 1625.21,370.284 1640.04,358.117 1647,336.5C 1648.77,313.575 1638.93,297.741 1617.5,289C 1610.32,285.94 1602.99,283.273 1595.5,281C 1561.35,273.38 1527.69,264.046 1494.5,253C 1467.52,243.436 1443.68,228.936 1423,209.5C 1397.98,181.104 1388.65,148.104 1395,110.5C 1405.18,66.9902 1430.68,36.1569 1471.5,18C 1487.54,11.1553 1504.21,6.4886 1521.5,4C 1535.6,2.02406 1549.6,0.524062 1563.5,-0.5 Z"/></g>
<g><path style="opacity:1" fill="#2b2926" d="M 31.5,7.5 C 118.834,7.33334 206.167,7.5 293.5,8C 319.959,8.49294 345.626,13.1596 370.5,22C 406.118,39.6368 427.284,68.1368 434,107.5C 443.606,169.781 421.106,215.947 366.5,246C 354.773,250.798 342.773,254.798 330.5,258C 348.96,262.807 364.46,272.307 377,286.5C 386.487,298.142 395.487,310.142 404,322.5C 427.058,366.617 449.558,410.951 471.5,455.5C 419.166,455.667 366.832,455.5 314.5,455C 288.285,407.406 262.452,359.573 237,311.5C 223.849,284.003 202.015,271.67 171.5,274.5C 171.667,334.501 171.5,394.501 171,454.5C 124.333,455.833 77.6667,455.833 31,454.5C 30.1684,305.43 30.3351,156.43 31.5,7.5 Z M 171.5,99.5 C 197.835,99.3334 224.169,99.5 250.5,100C 282.438,101.931 297.272,118.764 295,150.5C 292.357,164.131 284.857,173.964 272.5,180C 260.057,183.689 247.39,186.355 234.5,188C 213.503,188.5 192.503,188.667 171.5,188.5C 171.5,158.833 171.5,129.167 171.5,99.5 Z"/></g>
<g><path style="opacity:1" fill="#2b2926" d="M 228.5,994.5 C 213.833,994.5 199.167,994.5 184.5,994.5C 157.843,993.285 131.51,989.118 105.5,982C 69.1615,971.253 41.6615,949.42 23,916.5C 10.3633,893.588 2.52992,869.254 -0.5,843.5C -0.5,841.5 -0.5,839.5 -0.5,837.5C 43.8142,834.543 88.1475,831.876 132.5,829.5C 140.25,887.727 173.25,912.227 231.5,903C 250.652,898.513 263.486,887.013 270,868.5C 272.068,844.16 261.568,827.66 238.5,819C 230.908,816.136 223.242,813.469 215.5,811C 191.737,805.381 168.07,799.381 144.5,793C 112.854,784.138 83.8542,770.138 57.5,751C 21.7359,719.035 9.23594,679.535 20,632.5C 31.7807,593.051 56.614,565.218 94.5,549C 118.55,539.256 143.55,533.589 169.5,532C 212.123,527.908 254.123,531.241 295.5,542C 354.93,561.633 386.93,602.799 391.5,665.5C 350.833,667.755 310.166,670.088 269.5,672.5C 266.5,672.167 263.5,671.833 260.5,671.5C 258.082,653.486 250.082,638.653 236.5,627C 219.838,617.11 201.838,613.443 182.5,616C 166.977,616.997 155.477,624.164 148,637.5C 142.479,654.626 147.979,666.793 164.5,674C 171.363,676.732 178.363,679.066 185.5,681C 223.328,688.79 260.662,698.457 297.5,710C 324.21,718.683 348.21,732.017 369.5,750C 399.98,781.783 411.813,819.617 405,863.5C 396.94,906.486 374.773,939.986 338.5,964C 318.008,976.243 296.008,984.577 272.5,989C 257.76,991.469 243.094,993.302 228.5,994.5 Z"/></g>
<g><path style="opacity:1" fill="#2b2926" d="M 753.5,994.5 C 739.5,994.5 725.5,994.5 711.5,994.5C 678.419,993.249 646.419,986.416 615.5,974C 591.921,962.958 571.754,947.458 555,927.5C 520.481,885.971 502.481,837.971 501,783.5C 497.289,735.807 504.289,689.807 522,645.5C 549.517,588.14 594.351,552.307 656.5,538C 706.657,527.486 756.657,528.153 806.5,540C 860.937,556.098 899.437,590.264 922,642.5C 926.2,651.935 929.7,661.601 932.5,671.5C 891.725,679.989 851.058,688.989 810.5,698.5C 806.499,688.694 801.999,679.027 797,669.5C 775.636,641.592 747.47,630.759 712.5,637C 679.425,644.739 657.925,664.906 648,697.5C 642.392,718.623 639.892,740.123 640.5,762C 639.497,790.651 643.663,818.485 653,845.5C 667.868,875.45 692.201,890.117 726,889.5C 764.474,889.946 790.474,872.28 804,836.5C 808.137,826.088 811.471,815.421 814,804.5C 814.388,803.572 815.055,802.905 816,802.5C 856.099,814.645 896.099,826.978 936,839.5C 927.974,883.058 907.807,919.891 875.5,950C 850.729,971.381 822.062,984.715 789.5,990C 777.4,991.916 765.4,993.416 753.5,994.5 Z"/></g>
<g><path style="opacity:1" fill="#2b2926" d="M 2764.5,875.5 C 2764.5,912.5 2764.5,949.5 2764.5,986.5C 2646.5,986.667 2528.5,986.5 2410.5,986C 2409.67,946.238 2409.17,906.404 2409,866.5C 2384.95,926.219 2342.12,965.385 2280.5,984C 2259.69,989.517 2238.69,993.017 2217.5,994.5C 2203.83,994.5 2190.17,994.5 2176.5,994.5C 2138.47,993.077 2102.14,984.244 2067.5,968C 2035.76,950.094 2010.43,925.594 1991.5,894.5C 1958.66,947.441 1911.33,979.274 1849.5,990C 1837.06,991.844 1824.72,993.344 1812.5,994.5C 1798.83,994.5 1785.17,994.5 1771.5,994.5C 1735.84,992.998 1701.5,985.165 1668.5,971C 1616.69,943.256 1582.52,901.089 1566,844.5C 1551.71,787.657 1552.37,730.991 1568,674.5C 1593.33,599.839 1644.5,554.005 1721.5,537C 1767.89,528.131 1814.23,528.465 1860.5,538C 1917.78,550.494 1961.45,581.661 1991.5,631.5C 2022.8,580.734 2067.8,549.234 2126.5,537C 2175.72,527.617 2224.72,528.617 2273.5,540C 2338.33,557.17 2383.5,596.67 2409,658.5C 2409.17,618.596 2409.67,578.762 2410.5,539C 2456.83,538.5 2503.17,538.333 2549.5,538.5C 2549.5,650.833 2549.5,763.167 2549.5,875.5C 2621.17,875.5 2692.83,875.5 2764.5,875.5 Z M 1779.5,636.5 C 1830.76,634.521 1862.93,658.187 1876,707.5C 1883.56,748.033 1882.56,788.367 1873,828.5C 1862.23,864.593 1838.07,884.759 1800.5,889C 1744.96,892.996 1711.46,867.83 1700,813.5C 1693.01,774.52 1694.34,735.853 1704,697.5C 1716.14,660.867 1741.31,640.534 1779.5,636.5 Z M 2184.5,636.5 C 2237.96,635.141 2270.46,660.475 2282,712.5C 2288.34,751.42 2287,790.086 2278,828.5C 2267.23,864.593 2243.07,884.759 2205.5,889C 2149.96,892.996 2116.46,867.83 2105,813.5C 2098.01,774.522 2099.34,735.855 2109,697.5C 2121.14,660.867 2146.31,640.534 2184.5,636.5 Z"/></g>
<g><path style="opacity:1" fill="#2b2926" d="M 1042.5,538.5 C 1088.83,538.5 1135.17,538.5 1181.5,538.5C 1181.5,590.5 1181.5,642.5 1181.5,694.5C 1231.5,694.5 1281.5,694.5 1331.5,694.5C 1331.5,642.5 1331.5,590.5 1331.5,538.5C 1378.17,538.5 1424.83,538.5 1471.5,538.5C 1471.5,687.833 1471.5,837.167 1471.5,986.5C 1424.83,986.5 1378.17,986.5 1331.5,986.5C 1331.5,926.167 1331.5,865.833 1331.5,805.5C 1281.5,805.5 1231.5,805.5 1181.5,805.5C 1181.5,865.833 1181.5,926.167 1181.5,986.5C 1135.17,986.5 1088.83,986.5 1042.5,986.5C 1042.5,837.167 1042.5,687.833 1042.5,538.5 Z"/></g>
</svg>
